<svg width="16" height="16" viewBox="0 0 16 16" fill="none" xmlns="http://www.w3.org/2000/svg">
<path d="M11.876 10.6685C12.7894 9.45446 13.2176 7.94219 13.0747 6.42754C12.9289 4.88304 12.2002 3.45209 11.0369 2.42579C9.87349 1.39949 8.36283 0.854939 6.81222 0.902922C5.2616 0.950904 3.78751 1.58782 2.68982 2.68408L11.876 10.6685ZM10.1154 3.88737C10.5294 4.29472 10.8587 4.78002 11.0842 5.31527C11.3098 5.85052 11.4271 6.42513 11.4295 7.00596C11.4319 7.58679 11.3192 8.16233 11.098 8.6994C10.8768 9.23647 10.5515 9.72444 10.1408 10.1351C9.73008 10.5459 9.24212 10.8712 8.70505 11.0924C8.16798 11.3135 7.59243 11.4262 7.01161 11.4238C6.43078 11.4215 5.85617 11.3041 5.32092 11.0786C4.78567 10.853 4.30037 10.5237 3.89302 10.1097C3.07896 9.28228 2.62483 8.1667 2.62956 7.00596C2.63429 5.84522 3.09748 4.73338 3.91825 3.91261C4.73902 3.09184 5.85087 2.62864 7.01161 2.62391C8.17234 2.61919 9.28792 3.07331 10.1154 3.88737Z" fill="#CACDD8" stroke="#CACDD8" stroke-width="0.2"/>
</svg>
